<svg width="14" height="20" viewBox="0 0 14 20" fill="none" xmlns="http://www.w3.org/2000/svg">
<path d="M7.49997 20H6.49997C6.22383 20 5.99997 19.7761 5.99997 19.5V3.33L1.55997 7.78C1.46609 7.87466 1.33829 7.9279 1.20497 7.9279C1.07166 7.9279 0.943858 7.87466 0.849974 7.78L0.149974 7.07C0.055318 6.97612 0.0020752 6.84832 0.0020752 6.715C0.0020752 6.58168 0.055318 6.45388 0.149974 6.36L6.27997 0.22C6.42049 0.0793075 6.61113 0.000175052 6.80997 0H7.18997C7.38839 0.00230401 7.57825 0.081116 7.71997 0.22L13.85 6.36C13.9446 6.45388 13.9979 6.58168 13.9979 6.715C13.9979 6.84832 13.9446 6.97612 13.85 7.07L13.14 7.78C13.0478 7.87406 12.9217 7.92707 12.79 7.92707C12.6583 7.92707 12.5321 7.87406 12.44 7.78L7.99997 3.33V19.5C7.99997 19.7761 7.77612 20 7.49997 20Z" fill="white"/>
</svg>
