<svg width="120" height="40" viewBox="0 0 120 40" fill="none" xmlns="http://www.w3.org/2000/svg">
<path fill-rule="evenodd" clip-rule="evenodd" d="M39.6144 23.965C39.8673 22.6949 40 21.3815 40 20.0371C40 18.3014 39.7789 16.6173 39.3633 15.0114H26.2103V23.965H39.6144ZM37.0389 30.5151H26.2103V39.0541C30.7513 37.5722 34.5776 34.5091 37.0389 30.5151ZM18.2659 39.963C8.03212 39.084 0 30.4986 0 20.0371C0 8.99141 8.9543 0.0371094 20 0.0371094C26.7318 0.0371094 32.6869 3.36305 36.3115 8.46135H18.2659V39.963Z" fill="white"/>
<path d="M58.973 11.0455C58.973 12.2351 58.7475 13.2472 58.2965 14.0817C57.8491 14.9162 57.2383 15.5536 56.4641 15.994C55.6935 16.4308 54.8271 16.6491 53.8647 16.6491C52.8952 16.6491 52.0252 16.429 51.2546 15.9886C50.484 15.5483 49.875 14.9109 49.4276 14.0763C48.9801 13.2418 48.7564 12.2315 48.7564 11.0455C48.7564 9.85582 48.9801 8.84375 49.4276 8.00923C49.875 7.17472 50.484 6.53906 51.2546 6.10227C52.0252 5.66193 52.8952 5.44176 53.8647 5.44176C54.8271 5.44176 55.6935 5.66193 56.4641 6.10227C57.2383 6.53906 57.8491 7.17472 58.2965 8.00923C58.7475 8.84375 58.973 9.85582 58.973 11.0455ZM56.6346 11.0455C56.6346 10.2749 56.5192 9.625 56.2884 9.09588C56.0611 8.56676 55.7397 8.16548 55.3242 7.89205C54.9087 7.61861 54.4222 7.48189 53.8647 7.48189C53.3072 7.48189 52.8207 7.61861 52.4052 7.89205C51.9897 8.16548 51.6665 8.56676 51.4357 9.09588C51.2085 9.625 51.0948 10.2749 51.0948 11.0455C51.0948 11.8161 51.2085 12.4659 51.4357 12.995C51.6665 13.5241 51.9897 13.9254 52.4052 14.1989C52.8207 14.4723 53.3072 14.609 53.8647 14.609C54.4222 14.609 54.9087 14.4723 55.3242 14.1989C55.7397 13.9254 56.0611 13.5241 56.2884 12.995C56.5192 12.4659 56.6346 11.8161 56.6346 11.0455ZM69.8062 5.59091V16.5H67.814L63.0679 9.63388H62.988V16.5H60.6816V5.59091H62.7057L67.4145 12.4517H67.5104V5.59091H69.8062ZM71.7118 16.5V5.59091H74.0183V14.5984H78.6951V16.5H71.7118ZM82.529 5.59091V16.5H80.2226V5.59091H82.529ZM93.5513 5.59091V16.5H91.5591L86.813 9.63388H86.7331V16.5H84.4267V5.59091H86.4508L91.1596 12.4517H91.2555V5.59091H93.5513ZM95.4569 16.5V5.59091H102.808V7.49254H97.7634V10.092H102.43V11.9936H97.7634V14.5984H102.829V16.5H95.4569ZM48.9482 34.5V23.5909H56.1712V25.4925H51.2546V28.092H55.6918V29.9936H51.2546V34.5H48.9482ZM58.2406 34.5H55.769L59.535 23.5909H62.5073L66.2679 34.5H63.7963L61.0637 26.0838H60.9785L58.2406 34.5ZM58.0861 30.212H63.9242V32.0124H58.0861V30.212ZM67.581 34.5V23.5909H69.8874V28.4009H70.0312L73.957 23.5909H76.7216L72.6733 28.4755L76.7695 34.5H74.0103L71.022 30.0149L69.8874 31.3999V34.5H67.581ZM77.5073 25.4925V23.5909H86.4668V25.4925H83.127V34.5H80.8471V25.4925H77.5073ZM94.6806 23.5909H96.987V30.6754C96.987 31.4709 96.7971 32.1669 96.4171 32.7635C96.0407 33.3601 95.5133 33.8253 94.8351 34.1591C94.1568 34.4893 93.3667 34.6545 92.4647 34.6545C91.5591 34.6545 90.7672 34.4893 90.089 34.1591C89.4107 33.8253 88.8833 33.3601 88.5069 32.7635C88.1305 32.1669 87.9423 31.4709 87.9423 30.6754V23.5909H90.2488V30.4783C90.2488 30.8938 90.3393 31.2631 90.5204 31.5863C90.7051 31.9094 90.9643 32.1634 91.2981 32.348C91.6319 32.5327 92.0208 32.625 92.4647 32.625C92.9121 32.625 93.301 32.5327 93.6312 32.348C93.965 32.1634 94.2225 31.9094 94.4036 31.5863C94.5882 31.2631 94.6806 30.8938 94.6806 30.4783V23.5909ZM98.8847 34.5V23.5909H103.189C104.013 23.5909 104.716 23.7383 105.298 24.033C105.884 24.3242 106.33 24.7379 106.635 25.2741C106.944 25.8068 107.098 26.4336 107.098 27.1545C107.098 27.8789 106.942 28.5021 106.63 29.0241C106.317 29.5426 105.864 29.9403 105.271 30.2173C104.682 30.4943 103.968 30.6328 103.13 30.6328H100.248V28.7791H102.757C103.198 28.7791 103.563 28.7187 103.854 28.598C104.146 28.4773 104.362 28.2962 104.504 28.0547C104.65 27.8132 104.723 27.5131 104.723 27.1545C104.723 26.7923 104.65 26.4869 104.504 26.2383C104.362 25.9897 104.144 25.8015 103.849 25.6737C103.558 25.5423 103.19 25.4766 102.747 25.4766H101.191V34.5H98.8847ZM104.776 29.5355L107.487 34.5H104.941L102.288 29.5355H104.776ZM110.609 34.5H108.137L111.903 23.5909H114.875L118.636 34.5H116.165L113.432 26.0838H113.347L110.609 34.5ZM110.454 30.212H116.292V32.0124H110.454V30.212Z" fill="white"/>
</svg>
