<svg width="18" height="18" viewBox="0 0 18 18" fill="none" xmlns="http://www.w3.org/2000/svg">
<path fill-rule="evenodd" clip-rule="evenodd" d="M8.99996 0.666656C4.39759 0.666656 0.666626 4.39762 0.666626 8.99999C0.666626 13.6024 4.39759 17.3333 8.99996 17.3333C13.6023 17.3333 17.3333 13.6024 17.3333 8.99999C17.3333 6.78985 16.4553 4.67024 14.8925 3.10743C13.3297 1.54463 11.2101 0.666656 8.99996 0.666656ZM8.99996 15.6667C5.31806 15.6667 2.33329 12.6819 2.33329 8.99999C2.33329 5.31809 5.31806 2.33332 8.99996 2.33332C12.6819 2.33332 15.6666 5.31809 15.6666 8.99999C15.6666 10.7681 14.9642 12.4638 13.714 13.714C12.4638 14.9643 10.7681 15.6667 8.99996 15.6667ZM11.1333 6.42499L11.575 6.86666C11.6555 6.94227 11.7012 7.04784 11.7012 7.15832C11.7012 7.26881 11.6555 7.37438 11.575 7.44999L10.0333 8.99999L11.575 10.55C11.6555 10.6256 11.7012 10.7312 11.7012 10.8417C11.7012 10.9521 11.6555 11.0577 11.575 11.1333L11.1333 11.575C11.0577 11.6556 10.9521 11.7013 10.8416 11.7013C10.7311 11.7013 10.6256 11.6556 10.55 11.575L8.99996 10.0333L7.44996 11.575C7.37435 11.6556 7.26878 11.7013 7.15829 11.7013C7.0478 11.7013 6.94224 11.6556 6.86663 11.575L6.42496 11.1333C6.3444 11.0577 6.29869 10.9521 6.29869 10.8417C6.29869 10.7312 6.3444 10.6256 6.42496 10.55L7.96663 8.99999L6.42496 7.44999C6.3444 7.37438 6.29869 7.26881 6.29869 7.15832C6.29869 7.04784 6.3444 6.94227 6.42496 6.86666L6.86663 6.42499C6.94224 6.34443 7.0478 6.29872 7.15829 6.29872C7.26878 6.29872 7.37435 6.34443 7.44996 6.42499L8.99996 7.96666L10.55 6.42499C10.6256 6.34443 10.7311 6.29872 10.8416 6.29872C10.9521 6.29872 11.0577 6.34443 11.1333 6.42499Z" fill="white"/>
</svg>
