<svg width="18" height="18" viewBox="0 0 18 18" fill="none" xmlns="http://www.w3.org/2000/svg">
<path fill-rule="evenodd" clip-rule="evenodd" d="M8.99996 0.666656C4.39759 0.666656 0.666626 4.39762 0.666626 8.99999C0.666626 13.6024 4.39759 17.3333 8.99996 17.3333C13.6023 17.3333 17.3333 13.6024 17.3333 8.99999C17.3333 6.78985 16.4553 4.67024 14.8925 3.10743C13.3297 1.54463 11.2101 0.666656 8.99996 0.666656ZM8.99996 15.6667C5.31806 15.6667 2.33329 12.6819 2.33329 8.99999C2.33329 5.31809 5.31806 2.33332 8.99996 2.33332C12.6819 2.33332 15.6666 5.31809 15.6666 8.99999C15.6666 10.7681 14.9642 12.4638 13.714 13.714C12.4638 14.9643 10.7681 15.6667 8.99996 15.6667ZM11.6 6.07499C11.762 5.91618 12.0213 5.91618 12.1833 6.07499L12.6 6.51666C12.6788 6.59489 12.7232 6.70139 12.7232 6.81249C12.7232 6.92359 12.6788 7.03009 12.6 7.10832L7.91663 11.7917C7.84102 11.8722 7.73545 11.9179 7.62496 11.9179C7.51447 11.9179 7.4089 11.8722 7.33329 11.7917L5.37496 9.81666C5.29608 9.73842 5.25171 9.63192 5.25171 9.52082C5.25171 9.40972 5.29608 9.30323 5.37496 9.22499L5.81663 8.78332C5.89224 8.70276 5.9978 8.65706 6.10829 8.65706C6.21878 8.65706 6.32435 8.70276 6.39996 8.78332L7.64996 10.025L11.6 6.07499Z" fill="white"/>
</svg>
