<svg width="20" height="20" viewBox="0 0 20 20" fill="none" xmlns="http://www.w3.org/2000/svg">
<path fill-rule="evenodd" clip-rule="evenodd" d="M0 10C0 4.47715 4.47715 0 10 0C12.6522 0 15.1957 1.05357 17.0711 2.92893C18.9464 4.8043 20 7.34784 20 10C20 15.5228 15.5228 20 10 20C4.47715 20 0 15.5228 0 10ZM2 10C2 14.4183 5.58172 18 10 18C12.1217 18 14.1566 17.1571 15.6569 15.6569C17.1571 14.1566 18 12.1217 18 10C18 5.58172 14.4183 2 10 2C5.58172 2 2 5.58172 2 10ZM9.5 14C9.22386 14 9 14.2239 9 14.5V15.5C9 15.7761 9.22386 16 9.5 16H10.5C10.7761 16 11 15.7761 11 15.5V14.5C11 14.2239 10.7761 14 10.5 14H9.5ZM11 4.12C12.5906 4.12 13.88 5.40942 13.88 7L13.95 7.56C13.9416 8.806 13.1355 9.9063 11.95 10.29L11 10.6C10.9358 10.6048 10.8848 10.6558 10.88 10.72V11.5C10.88 11.7761 10.6561 12 10.38 12H9.62C9.34386 12 9.12 11.7761 9.12 11.5V10.72C9.12216 9.91089 9.64176 9.19392 10.41 8.94L11.36 8.63C11.8157 8.47208 12.121 8.04231 12.12 7.56V7C12.12 6.38144 11.6186 5.88 11 5.88H9C8.70296 5.88 8.41808 5.998 8.20804 6.20804C7.998 6.41808 7.88 6.70296 7.88 7V7.5C7.88 7.77614 7.65614 8 7.38 8H6.62C6.34386 8 6.12 7.77614 6.12 7.5V7C6.12 5.40942 7.40942 4.12 9 4.12H11Z" fill="#333333"/>
</svg>
