<svg width="20" height="20" viewBox="0 0 20 20" fill="none" xmlns="http://www.w3.org/2000/svg">
<path fill-rule="evenodd" clip-rule="evenodd" d="M10 20C15.5228 20 20 15.5228 20 10C20 4.47715 15.5228 0 10 0C4.47715 0 0 4.47715 0 10C0 12.6522 1.05357 15.1957 2.92893 17.0711C4.8043 18.9464 7.34784 20 10 20ZM10 2C14.4183 2 18 5.58172 18 10C18 14.4183 14.4183 18 10 18C5.58172 18 2 14.4183 2 10C2 7.87827 2.84285 5.84344 4.34315 4.34315C5.84344 2.84285 7.87827 2 10 2ZM9.81 16C9.61159 15.9977 9.42172 15.9189 9.28 15.78L6.15 12.65C6.05534 12.5561 6.0021 12.4283 6.0021 12.295C6.0021 12.1617 6.05534 12.0339 6.15 11.94L6.86 11.23C6.95216 11.1359 7.07831 11.0829 7.21 11.0829C7.34169 11.0829 7.46784 11.1359 7.56 11.23L9 12.67V4.5C9 4.22386 9.22386 4 9.5 4H10.5C10.7761 4 11 4.22386 11 4.5V12.67L12.44 11.22C12.5339 11.1253 12.6617 11.0721 12.795 11.0721C12.9283 11.0721 13.0561 11.1253 13.15 11.22L13.85 11.93C13.9447 12.0239 13.9979 12.1517 13.9979 12.285C13.9979 12.4183 13.9447 12.5461 13.85 12.64L10.72 15.78C10.5795 15.9207 10.3888 15.9998 10.19 16H9.81Z" fill="#2B63C0"/>
</svg>
