<svg width="18" height="18" viewBox="0 0 18 18" fill="none" xmlns="http://www.w3.org/2000/svg">
<path fill-rule="evenodd" clip-rule="evenodd" d="M18 4C18 6.2 16.2 8 14 8C13.5 8 12.9 7.9 12.5 7.7L10.8 9.4L12 10.6L12.5 10.1C12.7 9.9 13 9.9 13.2 10.1L17.7 14.6C17.9 14.8 18 15 18 15.3V16.5C18 16.8 17.9 17 17.7 17.2L17.2 17.7C17 17.9 16.8 18 16.5 18H15.3C15 18 14.8 17.9 14.6 17.7L10.1 13.2C9.9 13 9.9 12.7 10.1 12.5L10.6 12L3.8 5.2L2.2 4.3C1.9 4.2 1.6 4 1.5 3.6L0.1 1.6C0 1.4 0 1.2 0.2 1L1 0.2C1.2 0 1.4 0 1.6 0.1L3.7 1.4C4 1.6 4.2 1.9 4.3 2.2L5.2 3.8L8.6 7.3L10.3 5.6C10.1 5.1 10 4.5 10 4C10 1.8 11.8 0 14 0H14.3C14.5 0 14.6 0 14.7 0.1L14.9 0.3C15.1 0.5 15.1 0.8 14.9 1L13.3 2.6C13.1 2.8 13.1 3.1 13.3 3.3L14.7 4.7C14.9 4.9 15.2 4.9 15.4 4.7L17 3.1C17.2 3 17.5 3 17.7 3.1L17.9 3.3C17.9 3.35 17.925 3.425 17.95 3.5C17.975 3.575 18 3.65 18 3.7V4ZM0 16.3C0 16 0.1 15.8 0.3 15.6L6 9.9L8.1 12L2.4 17.7C2.2 17.9 2 18 1.7 18H1.5C1.3 18 1 17.9 0.8 17.7L0.3 17.2C0.1 17 0 16.8 0 16.5V16.3Z" fill="#333333"/>
</svg>
