<svg width="20" height="20" viewBox="0 0 20 20" fill="none" xmlns="http://www.w3.org/2000/svg">
<path fill-rule="evenodd" clip-rule="evenodd" d="M18.21 12.0741C17.7249 11.6707 17.4581 11.0617 17.49 10.4309V10V9.56914C17.4581 8.9383 17.7249 8.32932 18.21 7.92587L19.01 7.26455C19.3861 6.95336 19.4833 6.41563 19.24 5.99202L18.08 3.98803C17.9024 3.67987 17.5751 3.48918 17.22 3.48703C17.0996 3.48502 16.9803 3.50894 16.87 3.55717L15.87 3.91789C15.647 4.00535 15.4094 4.04955 15.17 4.04815C14.7867 4.04715 14.4119 3.93586 14.09 3.72751C13.8549 3.56478 13.6075 3.42072 13.35 3.29665C12.7873 3.0075 12.3942 2.46873 12.29 1.84376L12.12 0.84176C12.0407 0.351727 11.6153 -0.00630458 11.12 8.41592e-05H8.81996C8.32456 -0.00630458 7.89919 0.351727 7.81996 0.84176L7.64996 1.84376C7.55444 2.46084 7.1773 2.99804 6.62996 3.29665C6.37246 3.42072 6.12504 3.56478 5.88996 3.72751C5.56805 3.93586 5.19318 4.04715 4.80996 4.04815C4.5705 4.04955 4.33295 4.00535 4.10996 3.91789L3.10996 3.55717C2.99965 3.50894 2.88029 3.48502 2.75996 3.48703C2.40485 3.48918 2.07751 3.67987 1.89996 3.98803L0.759957 5.99202C0.518882 6.41797 0.620377 6.95612 0.999957 7.26455L1.79996 7.92587C2.28501 8.32932 2.55183 8.9383 2.51996 9.56914V10V10.4309C2.55183 11.0617 2.28501 11.6707 1.79996 12.0741L0.999957 12.7354C0.620377 13.0439 0.518882 13.582 0.759957 14.008L1.91996 16.012C2.09751 16.3201 2.42485 16.5108 2.77996 16.513C2.90029 16.515 3.01965 16.4911 3.12996 16.4428L4.12996 16.0821C4.35295 15.9947 4.5905 15.9504 4.82996 15.9519C5.21318 15.9528 5.58805 16.0641 5.90996 16.2725C6.14504 16.4352 6.39246 16.5793 6.64996 16.7034C7.21266 16.9925 7.60573 17.5313 7.70996 18.1562L7.87996 19.1582C7.95919 19.6483 8.38456 20.0063 8.87996 19.9999H11.18C11.6754 20.0063 12.1007 19.6483 12.18 19.1582L12.35 18.1562C12.4542 17.5313 12.8473 16.9925 13.41 16.7034C13.6675 16.5793 13.9149 16.4352 14.15 16.2725C14.4719 16.0641 14.8467 15.9528 15.23 15.9519C15.4694 15.9504 15.707 15.9947 15.93 16.0821L16.93 16.4428C17.0403 16.4911 17.1596 16.515 17.28 16.513C17.6351 16.5108 17.9624 16.3201 18.14 16.012L19.3 14.008C19.528 13.5679 19.4005 13.0268 19 12.7354L18.21 12.0741ZM9.99996 15.511C6.96239 15.511 4.49996 13.0436 4.49996 10C4.49996 6.95637 6.96239 4.48902 9.99996 4.48902C13.0375 4.48902 15.5 6.95637 15.5 10C15.5 11.4616 14.9205 12.8633 13.889 13.8968C12.8576 14.9304 11.4586 15.511 9.99996 15.511ZM7.99996 10C7.99996 8.89323 8.89539 7.99601 9.99996 7.99601C11.1045 7.99601 12 8.89323 12 10C12 11.1068 11.1045 12.004 9.99996 12.004C8.89539 12.004 7.99996 11.1068 7.99996 10Z" fill="white"/>
</svg>
