<svg width="18" height="18" viewBox="0 0 18 18" fill="none" xmlns="http://www.w3.org/2000/svg">
<path fill-rule="evenodd" clip-rule="evenodd" d="M14.59 0.590001C14.2142 0.211962 13.703 -0.00042112 13.17 6.26926e-07H2C0.89543 6.26926e-07 0 0.895432 0 2V16C0 17.1046 0.89543 18 2 18H16C17.1046 18 18 17.1046 18 16V4.83C18.0004 4.29696 17.788 3.7858 17.41 3.41L14.59 0.590001ZM6 13.5V12.5C6 12.2239 6.22386 12 6.5 12H11.5C11.7761 12 12 12.2239 12 12.5V13.5C12 13.7761 11.7761 14 11.5 14H6.5C6.22386 14 6 13.7761 6 13.5ZM14 16H16V4.83L13.17 2H12V3.5C12 3.77614 11.7761 4 11.5 4H6.5C6.22386 4 6 3.77614 6 3.5V2H2V16H4V8.5C4 8.22386 4.22386 8 4.5 8H13.5C13.7761 8 14 8.22386 14 8.5V16Z" fill="white"/>
</svg>
