<svg width="16" height="20" viewBox="0 0 16 20" fill="none" xmlns="http://www.w3.org/2000/svg">
<path fill-rule="evenodd" clip-rule="evenodd" d="M11 2H15.5C15.7761 2 16 2.22386 16 2.5V3.5C16 3.77614 15.7761 4 15.5 4H0.5C0.223858 4 0 3.77614 0 3.5V2.5C0 2.22386 0.223858 2 0.5 2H5V1C5 0.447715 5.44772 0 6 0H10C10.5523 0 11 0.447715 11 1V2ZM1 6L1.87 18.14C1.94365 19.1896 2.81787 20.0026 3.87 20H12.15C13.2021 20.0026 14.0764 19.1896 14.15 18.14L15 6H1ZM11.09 14.86C11.1867 14.9507 11.2415 15.0774 11.2415 15.21C11.2415 15.3426 11.1867 15.4693 11.09 15.56L10.56 16.09C10.4693 16.1867 10.3426 16.2415 10.21 16.2415C10.0774 16.2415 9.95073 16.1867 9.86 16.09L8 14.24L6.14 16.09C6.04927 16.1867 5.92259 16.2415 5.79 16.2415C5.65741 16.2415 5.53073 16.1867 5.44 16.09L4.91 15.56C4.81332 15.4693 4.75848 15.3426 4.75848 15.21C4.75848 15.0774 4.81332 14.9507 4.91 14.86L6.76 13L4.91 11.14C4.81332 11.0493 4.75848 10.9226 4.75848 10.79C4.75848 10.6574 4.81332 10.5307 4.91 10.44L5.44 9.91C5.53073 9.81332 5.65741 9.75848 5.79 9.75848C5.92259 9.75848 6.04927 9.81332 6.14 9.91L8 11.76L9.86 9.91C9.95073 9.81332 10.0774 9.75848 10.21 9.75848C10.3426 9.75848 10.4693 9.81332 10.56 9.91L11.09 10.44C11.1867 10.5307 11.2415 10.6574 11.2415 10.79C11.2415 10.9226 11.1867 11.0493 11.09 11.14L9.24 13L11.09 14.86Z" fill="white"/>
</svg>
