<svg width="18" height="22" viewBox="0 0 18 22" fill="none" xmlns="http://www.w3.org/2000/svg">
<path d="M18 12V16C18 17.1046 17.1046 18 16 18V19C16 20.6569 14.6569 22 13 22H10C9.44771 22 9 21.5523 9 21V20.5C9 20.2239 9.22386 20 9.5 20H13C13.5523 20 14 19.5523 14 19V18C13.4477 18 13 17.5523 13 17V11C13 10.4477 13.4477 10 14 10V7C14 4.23858 11.7614 2 9 2C6.23858 2 4 4.23858 4 7V10C4.55228 10 5 10.4477 5 11V17C5 17.5523 4.55228 18 4 18H2C0.89543 18 0 17.1046 0 16V12C0 10.8954 0.89543 10 2 10V7C2 3.13401 5.13401 0 9 0C12.866 0 16 3.13401 16 7V10C16.5304 10 17.0391 10.2107 17.4142 10.5858C17.7893 10.9609 18 11.4696 18 12Z" fill="white"/>
</svg>
