<svg width="20" height="20" viewBox="0 0 20 20" fill="none" xmlns="http://www.w3.org/2000/svg">
<path fill-rule="evenodd" clip-rule="evenodd" d="M3.24244 2.57454H9.97019C10.3836 2.57454 10.7177 2.24041 10.7177 1.82703C10.7177 1.41366 10.3836 1.07953 9.97019 1.07953H3.24244C2.00604 1.07953 0.999878 2.08568 0.999878 3.32209V16.7775C0.999878 18.0139 2.00604 19.0201 3.24244 19.0201H9.97019C10.3836 19.0201 10.7177 18.6859 10.7177 18.2725C10.7177 17.8592 10.3836 17.525 9.97019 17.525H3.24244C2.82984 17.525 2.49493 17.1902 2.49493 16.7775V3.32205C2.49493 2.90945 2.8298 2.57454 3.24244 2.57454ZM14.2318 15.0673L18.7768 10.5821C18.9196 10.4408 18.9995 10.2502 18.9995 10.0499C18.9995 9.84962 18.9188 9.65823 18.7768 9.51771L14.2318 5.03255C14.0868 4.88901 13.897 4.81725 13.7071 4.81725C13.5142 4.81725 13.3213 4.89199 13.1748 5.04C12.8856 5.33378 12.8878 5.80696 13.1823 6.097L16.4303 9.30237H7.72688C7.3135 9.30237 6.97937 9.63654 6.97937 10.0499C6.97937 10.4633 7.3135 10.7974 7.72688 10.7974H16.4303L13.1823 14.0028C12.8878 14.2928 12.8848 14.766 13.1748 15.0598C13.4649 15.3536 13.9388 15.3573 14.2318 15.0673Z" fill="white"/>
<path d="M18.7768 10.5821L18.8706 10.6769L18.8704 10.677L18.7768 10.5821ZM14.2318 15.0673L14.138 14.9725L14.1382 14.9724L14.2318 15.0673ZM18.7768 9.51771L18.8704 9.4228L18.8706 9.42292L18.7768 9.51771ZM14.2318 5.03255L14.1382 5.12745L14.138 5.12731L14.2318 5.03255ZM13.1748 5.04L13.0798 4.94645L13.0801 4.94621L13.1748 5.04ZM13.1823 6.097L13.2759 6.002L13.276 6.0021L13.1823 6.097ZM16.4303 9.30237L16.524 9.20747L16.7552 9.4357H16.4303V9.30237ZM16.4303 10.7974V10.6641H16.7552L16.524 10.8923L16.4303 10.7974ZM13.1823 14.0028L13.276 14.0977L13.2759 14.0978L13.1823 14.0028ZM13.1748 15.0598L13.2697 14.9661L13.1748 15.0598ZM9.97019 2.70788H3.24244V2.44121H9.97019V2.70788ZM10.851 1.82703C10.851 2.31405 10.4572 2.70788 9.97019 2.70788V2.44121C10.3099 2.44121 10.5844 2.16677 10.5844 1.82703H10.851ZM9.97019 0.946194C10.4572 0.946194 10.851 1.34002 10.851 1.82703H10.5844C10.5844 1.4873 10.3099 1.21286 9.97019 1.21286V0.946194ZM3.24244 0.946194H9.97019V1.21286H3.24244V0.946194ZM0.866545 3.32209C0.866545 2.01204 1.9324 0.946194 3.24244 0.946194V1.21286C2.07967 1.21286 1.13321 2.15932 1.13321 3.32209H0.866545ZM0.866545 16.7775V3.32209H1.13321V16.7775H0.866545ZM3.24244 19.1534C1.9324 19.1534 0.866545 18.0876 0.866545 16.7775H1.13321C1.13321 17.9403 2.07968 18.8868 3.24244 18.8868V19.1534ZM9.97019 19.1534H3.24244V18.8868H9.97019V19.1534ZM10.851 18.2725C10.851 18.7595 10.4572 19.1534 9.97019 19.1534V18.8868C10.3099 18.8868 10.5844 18.6123 10.5844 18.2725H10.851ZM9.97019 17.3917C10.4572 17.3917 10.851 17.7855 10.851 18.2725H10.5844C10.5844 17.9328 10.3099 17.6584 9.97019 17.6584V17.3917ZM3.24244 17.3917H9.97019V17.6584H3.24244V17.3917ZM2.62826 16.7775C2.62826 17.1165 2.90347 17.3917 3.24244 17.3917V17.6584C2.7562 17.6584 2.3616 17.2638 2.3616 16.7775H2.62826ZM2.62826 3.32205V16.7775H2.3616V3.32205H2.62826ZM3.24244 2.70788C2.90344 2.70788 2.62826 2.98308 2.62826 3.32205H2.3616C2.3616 2.83582 2.75616 2.44121 3.24244 2.44121V2.70788ZM18.8704 10.677L14.3255 15.1622L14.1382 14.9724L18.6831 10.4872L18.8704 10.677ZM19.1329 10.0499C19.1329 10.2861 19.0385 10.5107 18.8706 10.6769L18.683 10.4873C18.8007 10.3709 18.8662 10.2143 18.8662 10.0499H19.1329ZM18.8706 9.42292C19.0377 9.58826 19.1329 9.81368 19.1329 10.0499H18.8662C18.8662 9.88556 18.8 9.7282 18.683 9.61249L18.8706 9.42292ZM14.3255 4.93765L18.8704 9.4228L18.6831 9.61261L14.1382 5.12745L14.3255 4.93765ZM13.7071 4.68392C13.9305 4.68392 14.1545 4.76844 14.3256 4.93779L14.138 5.12731C14.0191 5.00957 13.8634 4.95058 13.7071 4.95058V4.68392ZM13.0801 4.94621C13.2524 4.77209 13.4798 4.68392 13.7071 4.68392V4.95058C13.5487 4.95058 13.3903 5.0119 13.2696 5.1338L13.0801 4.94621ZM13.0888 6.192C12.7416 5.85005 12.7391 5.29246 13.0798 4.94645L13.2698 5.13356C13.032 5.3751 13.0341 5.76386 13.2759 6.002L13.0888 6.192ZM16.3367 9.39727L13.0887 6.1919L13.276 6.0021L16.524 9.20747L16.3367 9.39727ZM7.72688 9.16904H16.4303V9.4357H7.72688V9.16904ZM6.84604 10.0499C6.84604 9.56291 7.23986 9.16904 7.72688 9.16904V9.4357C7.38715 9.4357 7.1127 9.71017 7.1127 10.0499H6.84604ZM7.72688 10.9308C7.23986 10.9308 6.84604 10.5369 6.84604 10.0499H7.1127C7.1127 10.3897 7.38714 10.6641 7.72688 10.6641V10.9308ZM16.4303 10.9308H7.72688V10.6641H16.4303V10.9308ZM13.0887 13.9079L16.3367 10.7025L16.524 10.8923L13.276 14.0977L13.0887 13.9079ZM13.08 15.1535C12.7382 14.8073 12.7417 14.2496 13.0888 13.9078L13.2759 14.0978C13.0339 14.3361 13.0314 14.7248 13.2697 14.9661L13.08 15.1535ZM14.3256 15.162C13.9799 15.5042 13.4215 15.4994 13.08 15.1535L13.2697 14.9661C13.5083 15.2077 13.8977 15.2104 14.138 14.9725L14.3256 15.162Z" fill="white"/>
</svg>
