<svg width="24" height="24" viewBox="0 0 24 24" fill="none" xmlns="http://www.w3.org/2000/svg">
<path fill-rule="evenodd" clip-rule="evenodd" d="M19 7H6C5.44772 7 5 6.55228 5 6C5 5.44772 5.44772 5 6 5H19C19 3.89543 18.1046 3 17 3H6C4.34315 3 3 4.34315 3 6V19C3 20.1046 3.89543 21 5 21H19C20.1046 21 21 20.1046 21 19V9C21 7.89543 20.1046 7 19 7ZM5 19V9H19V11H12C11.4477 11 11 11.4477 11 12V16C11 16.5523 11.4477 17 12 17H19V19H5ZM15 14.5V13.5C15 13.2239 14.7761 13 14.5 13H13.5C13.2239 13 13 13.2239 13 13.5V14.5C13 14.7761 13.2239 15 13.5 15H14.5C14.7761 15 15 14.7761 15 14.5Z" fill="#2B63C0"/>
</svg>
